<svg width="155" height="169" viewBox="0 0 155 169" fill="none" xmlns="http://www.w3.org/2000/svg">
<g clip-path="url(#clip0_1_2008)">
<path d="M58.3333 35.7022C58.3333 46.7645 58.3333 57.859 58.3978 68.9213C58.3978 78.4677 55.3017 87.7561 46.4325 92.6584C36.0798 98.3346 21.3731 96.8833 9.82704 95.69C9.37552 95.69 8.9885 95.5933 8.56923 95.561C8.95625 87.5949 8.79499 79.532 8.40797 71.5982C7.9242 60.8262 14.439 47.9901 26.0173 46.184C38.5631 44.2166 49.4964 42.8621 55.4307 35.928C55.6242 35.7345 55.8177 35.5087 55.9789 35.283C56.8497 34.0897 57.785 32.9609 58.7203 31.7998C58.43 33.0576 58.3333 34.3799 58.3333 35.67V35.7022Z" fill="white"/>
<path d="M20.3799 167.836C29.0233 168.385 37.7312 168.256 46.3746 168.417C56.4693 168.578 66.8221 169.836 76.562 168.062C90.5592 165.514 106.298 156.387 111.49 142.874C116.296 130.36 114.038 115.428 105.75 104.914C105.169 104.204 104.556 103.495 103.879 102.785C95.4936 93.6257 82.4963 88.8202 70.1117 90.4651C54.7278 92.4969 41.1821 104.591 37.1829 119.588C34.6996 128.941 36.8604 138.875 35.4091 148.389C34.2158 156.258 27.4752 164.321 20.3477 167.836H20.3799Z" fill="white"/>
<path d="M106.86 0C106.086 2.35436 107.021 4.90223 108.021 7.15983C120.857 35.7669 155.237 55.1178 154.044 89.4979C153.495 105.043 145.755 123.297 132.758 132.521C131.822 133.199 130.951 133.779 129.855 134.102C127.372 129.458 127.114 122.685 125.017 117.589C122.373 111.171 118.889 104.882 114.019 99.9151C109.343 95.1742 103.505 92.4328 98.829 87.7886C89.0245 77.9841 82.8322 64.5675 82.026 50.6994C80.8649 30.9614 90.7339 11.3525 106.892 0.064503L106.86 0Z" fill="white"/>
<path d="M17.5703 69.0182C17.5703 69.0182 17.1188 60.4071 25.9557 60.8264C25.9557 60.8264 29.1808 70.2438 17.5703 69.0182Z" fill="#8807F7" stroke="white" stroke-width="1.35608" stroke-miterlimit="10"/>
<path d="M14.6422 142.034C22.7288 142.034 29.2844 135.479 29.2844 127.392C29.2844 119.306 22.7288 112.75 14.6422 112.75C6.55553 112.75 0 119.306 0 127.392C0 135.479 6.55553 142.034 14.6422 142.034Z" fill="white"/>
</g>
<defs>
<clipPath id="clip0_1_2008">
<rect width="154.074" height="169" fill="white"/>
</clipPath>
</defs>
</svg>
